<?xml version="1.0" encoding="UTF-8"?>
<!-- Generator: visioncortex VTracer 0.6.12 -->
<svg viewBox="0 0 2584 700" version="1.1" xmlns="http://www.w3.org/2000/svg" width="2584" height="700">
<path d="M0 0 C2.63754 -0.0045 5.275055 -0.012204 7.912586 -0.020535 C34.973008 -0.094396 62.097382 0.227736 88.930622 4.120426 C90.170097 4.293067 91.4096 4.465506 92.649128 4.63776 C102.254893 5.997684 111.77664 7.707616 121.248981 9.805973 C123.00891 10.193812 124.774137 10.557434 126.539997 10.917301 C137.635954 13.274473 148.446244 16.801186 159.243122 20.245426 C160.04927 20.502272 160.855417 20.759118 161.685993 21.023746 C171.753713 24.278707 181.078748 28.392854 190.439899 33.312321 C192.086517 34.164388 193.74402 34.978063 195.418903 35.77277 C203.476227 39.625344 210.841013 44.281556 218.243122 49.245426 C218.768415 49.593473 219.293708 49.94152 219.834919 50.300114 C226.087626 54.452491 226.087626 54.452491 228.243122 56.245426 C228.243122 56.905426 228.243122 57.565426 228.243122 58.245426 C228.807731 58.492926 229.372341 58.740426 229.95406 58.995426 C234.637255 61.552802 238.374318 65.603869 242.243122 69.245426 C243.075856 70.02402 243.908591 70.802614 244.76656 71.604801 C262.905088 89.113917 276.15201 111.492925 284.243122 135.245426 C284.440349 135.823248 284.637575 136.401071 284.840778 136.996403 C289.731245 151.556655 291.808081 165.729021 292.99361 180.972233 C293.243122 183.245426 293.243122 183.245426 293.757282 185.680485 C294.700723 190.661283 294.485816 195.752851 294.493122 200.807926 C294.494794 201.415256 294.496466 202.022586 294.498188 202.648319 C294.499774 212.368977 293.918262 221.958463 292.868122 231.620426 C292.804998 232.215339 292.741875 232.810251 292.676838 233.423191 C292.037785 239.319075 291.211583 244.633543 289.243122 250.245426 C288.921273 251.760159 288.628297 253.28139 288.368122 254.807926 C282.985522 282.590425 268.33851 316.560877 247.243122 336.245426 C246.583122 336.245426 245.923122 336.245426 245.243122 336.245426 C244.913122 337.235426 244.583122 338.225426 244.243122 339.245426 C243.583122 339.245426 242.923122 339.245426 242.243122 339.245426 C241.913122 340.235426 241.583122 341.225426 241.243122 342.245426 C239.693092 343.641326 238.07678 344.964296 236.430622 346.245426 C231.449931 350.182758 226.756673 354.357607 222.12862 358.702457 C218.437906 362.148034 218.437906 362.148034 216.243122 363.245426 C216.732155 368.307229 217.842201 372.022896 220.430622 376.432926 C221.078059 377.583067 221.723864 378.734127 222.368122 379.886051 C222.689099 380.455172 223.010075 381.024293 223.340778 381.610661 C224.620259 383.928681 225.774301 386.301456 226.930622 388.682926 C230.357383 395.619802 234.103514 402.380309 237.841511 409.153385 C240.711422 414.369325 243.462945 419.622304 246.101765 424.958805 C247.686168 428.133035 249.365372 431.251697 251.055622 434.370426 C253.95761 439.756455 256.727832 445.194469 259.430622 450.682926 C261.797175 455.485283 264.210329 460.137943 267.23531 464.569645 C268.243122 466.245426 268.243122 466.245426 269.149372 468.526676 C270.486415 471.850183 272.153643 474.916921 273.868122 478.057926 C276.757527 483.408088 279.547347 488.795214 282.243122 494.245426 C285.418826 500.652495 288.729194 506.974256 292.114216 513.27277 C294.496911 517.707697 296.839224 522.163594 299.180622 526.620426 C302.402513 532.749292 305.628889 538.875705 308.868122 544.995426 C309.237277 545.693212 309.606433 546.390997 309.986774 547.109928 C311.748994 550.43757 313.517737 553.761426 315.301716 557.077457 C319.042659 564.036973 322.66461 571.039398 326.170856 578.120182 C328.636319 583.080544 331.198796 587.983041 333.805622 592.870426 C337.216949 599.267576 340.525642 605.705783 343.73531 612.206364 C344.66185 614.073848 345.601653 615.934908 346.563435 617.784489 C346.932106 618.493473 347.300778 619.202457 347.680622 619.932926 C347.988708 620.514293 348.296794 621.095661 348.614216 621.694645 C349.243122 623.245426 349.243122 623.245426 349.243122 626.245426 C339.914077 628.670655 330.72376 629.802447 321.119831 630.510563 C316.411556 630.862638 311.759259 631.30237 307.086679 631.991508 C296.479235 633.501665 285.962367 633.519115 275.26656 633.475895 C273.282724 633.474699 271.298888 633.474251 269.315052 633.474506 C265.185244 633.472954 261.055525 633.464763 256.925739 633.451237 C251.670051 633.434227 246.414459 633.430424 241.158747 633.431182 C237.071472 633.430908 232.984218 633.425395 228.89695 633.41818 C226.960344 633.415031 225.023736 633.413035 223.087128 633.412287 C209.81066 633.401528 196.666828 633.121177 183.493122 631.307926 C178.456393 630.645084 173.419015 630.034274 168.367634 629.493473 C162.193856 628.831112 156.019762 628.153854 149.868122 627.307926 C148.870388 627.175153 147.872653 627.042379 146.844685 626.905582 C143.886144 626.154842 142.411548 625.390333 140.243122 623.245426 C138.934528 620.67902 138.934528 620.67902 137.805622 617.682926 C135.579342 612.02162 133.030739 606.647573 130.243122 601.245426 C129.511193 599.809331 128.781842 598.371917 128.055622 596.932926 C127.752692 596.338668 127.449763 595.744411 127.137653 595.132145 C126.483786 593.753027 125.885616 592.347116 125.321247 590.92902 C124.05274 587.771541 122.628769 584.6981 121.180622 581.620426 C121.029439 581.29812 121.029439 581.29812 120.264362 579.667057 C119.606711 578.266537 118.948232 576.866405 118.289021 575.466618 C117.580329 573.961558 116.872679 572.456009 116.165974 570.950016 C111.856849 561.768795 107.499358 552.62051 102.893757 543.583561 C101.111946 540.069368 99.472345 536.530148 97.944782 532.898258 C96.894421 530.424025 95.754561 527.993628 94.618122 525.557926 C92.757104 521.559188 90.926577 517.548694 89.133747 513.518864 C85.353631 505.027216 81.494056 496.617648 77.269733 488.337467 C74.098422 482.071195 71.247516 475.671331 68.392048 469.256413 C66.199323 464.339726 63.92838 459.490835 61.473591 454.698551 C58.927603 449.62274 56.588187 444.446073 54.197712 439.295719 C52.557806 435.773486 50.89992 432.259737 49.243122 428.745426 C47.067954 424.130445 44.899556 419.512608 42.75069 414.885319 C36.148661 400.676903 29.435152 386.515969 22.372028 372.530582 C21.164383 370.08604 20.06095 367.624471 19.039997 365.096989 C18.373155 363.547561 17.636391 362.028477 16.883747 360.518864 C16.404216 359.541754 15.924685 358.564645 15.430622 357.557926 C14.970427 356.646559 14.510231 355.735192 14.036091 354.796207 C13.243122 352.245426 13.243122 352.245426 13.941364 350.266178 C15.467485 347.897142 16.899244 346.859694 19.278278 345.362614 C20.084104 344.849245 20.889929 344.335875 21.720173 343.80695 C22.552746 343.291647 23.385319 342.776344 24.243122 342.245426 C25.020266 341.758483 25.797409 341.271539 26.598103 340.76984 C28.157979 339.795776 29.71977 338.824773 31.283405 337.856754 C38.278997 333.51933 44.993769 329.169291 51.293903 323.858707 C53.051871 322.403717 54.818636 321.153444 56.743122 319.932926 C59.243122 318.245426 59.243122 318.245426 60.274372 316.639957 C60.59406 316.179762 60.913747 315.719567 61.243122 315.245426 C61.903122 315.245426 62.563122 315.245426 63.243122 315.245426 C63.573122 314.255426 63.903122 313.265426 64.243122 312.245426 C64.903122 312.245426 65.563122 312.245426 66.243122 312.245426 C66.573122 311.255426 66.903122 310.265426 67.243122 309.245426 C68.006247 308.647301 68.769372 308.049176 69.555622 307.432926 C71.977654 305.461505 73.433766 303.721592 75.067341 301.093082 C77.158588 297.806837 79.48486 294.679321 81.754841 291.514957 C83.243122 289.245426 83.243122 289.245426 84.243122 286.245426 C84.903122 286.245426 85.563122 286.245426 86.243122 286.245426 C86.3282 285.97859 86.3282 285.97859 86.758747 284.628239 C88.121329 280.439024 89.580362 276.325584 91.243122 272.245426 C93.109182 267.626395 94.816274 263.019584 96.243122 258.245426 C96.377829 257.82068 96.377829 257.82068 97.059528 255.671207 C103.632225 231.88884 102.054197 203.155825 90.243122 181.245426 C80.670197 164.699629 67.745809 154.94062 50.243122 148.245426 C49.351091 147.903825 48.45906 147.562223 47.539997 147.21027 C30.103873 141.613836 9.791198 142.6784 -8.261028 143.935123 C-10.085261 144.059005 -11.910038 144.164932 -13.735394 144.270817 C-14.926223 144.351103 -16.116982 144.432445 -17.307659 144.514957 C-17.831864 144.548997 -17.831864 144.548997 -20.484661 144.721256 C-23.756878 145.245426 -23.756878 145.245426 -31.756878 148.245426 C-32.086878 305.655426 -32.416878 463.065426 -32.756878 625.245426 C-41.755409 628.619876 -41.755409 628.619876 -46.381878 629.245426 C-46.94971 629.32277 -46.94971 629.32277 -49.823284 629.714176 C-50.137251 629.755426 -50.137251 629.755426 -51.726116 629.964176 C-53.897404 630.264888 -56.05817 630.612215 -58.221722 630.964176 C-93.395361 636.481133 -129.390898 636.21372 -164.819378 633.932926 C-165.287746 633.903545 -165.287746 633.903545 -167.65797 633.754856 C-177.837867 633.102183 -187.956867 632.210815 -198.065472 630.827457 C-198.486232 630.771814 -198.486232 630.771814 -200.615536 630.490223 C-214.537064 628.46524 -214.537064 628.46524 -217.756878 625.245426 C-217.853639 623.905235 -217.881352 622.559981 -217.881076 621.216302 C-217.883324 620.341103 -217.885571 619.465905 -217.887886 618.564186 C-217.885259 617.589766 -217.882632 616.615347 -217.879926 615.6114 C-217.88108 614.582026 -217.882233 613.552653 -217.883422 612.492086 C-217.885628 609.609761 -217.8833 606.727502 -217.879144 603.845183 C-217.875726 600.71898 -217.878078 597.592781 -217.879722 594.466577 C-217.881801 588.979246 -217.880142 583.491925 -217.876083 578.004595 C-217.870065 569.845048 -217.869746 561.685508 -217.870625 553.52596 C-217.871941 539.802431 -217.86859 526.078907 -217.862608 512.355379 C-217.856698 498.760821 -217.852843 485.166266 -217.851755 471.571707 C-217.851686 470.72749 -217.851618 469.883274 -217.851547 469.013475 C-217.851209 464.726397 -217.850907 460.439318 -217.85062 456.15224 C-217.848518 425.76053 -217.841775 395.368824 -217.832317 364.977116 C-217.823138 335.445866 -217.816052 305.914617 -217.81181 276.383366 C-217.811678 275.473617 -217.811546 274.563869 -217.811411 273.626552 C-217.810092 264.490761 -217.808817 255.35497 -217.807572 246.219179 C-217.805036 227.607328 -217.802214 208.995476 -217.799221 190.383625 C-217.799084 189.52782 -217.798946 188.672014 -217.798805 187.790275 C-217.789599 130.608658 -217.773753 73.427042 -217.756878 16.245426 C-215.570631 15.152303 -213.904731 14.896725 -211.487347 14.561832 C-211.047776 14.500844 -211.047776 14.500844 -208.823284 14.192204 C-208.348265 14.128798 -208.348265 14.128798 -205.944378 13.807926 C-204.969847 13.675958 -203.995315 13.543991 -202.991253 13.408024 C-195.222127 12.381889 -187.443105 11.572222 -179.636517 10.892155 C-178.820298 10.820531 -178.00408 10.748908 -177.163128 10.675114 C-176.454788 10.615656 -175.746448 10.556198 -175.016644 10.494938 C-173.284102 10.30364 -171.559316 10.040969 -169.841106 9.747623 C-166.883567 9.266055 -163.991338 8.984193 -161.002972 8.780582 C-159.912989 8.703964 -158.823006 8.627345 -157.699993 8.548405 C-157.12917 8.50934 -156.558347 8.470275 -155.970226 8.430027 C-147.201875 7.827147 -138.441661 7.168767 -129.694378 6.307926 C-128.867928 6.228085 -128.041478 6.148244 -127.189983 6.065983 C-123.221122 5.682221 -119.252675 5.295145 -115.285198 4.897282 C-76.891034 1.065959 -38.562689 0.054419 0 0 Z " fill="#306CA8" transform="translate(1282.75687789917,33.754573822021484)"/>
<path d="M0 0 C2.563652 -0.00363 5.12727 -0.010922 7.69091 -0.019093 C33.538735 -0.091368 59.247702 0.475453 84.897758 3.996319 C86.807554 4.257627 88.71905 4.502544 90.631157 4.746319 C96.537149 5.518108 102.16075 6.475865 107.849907 8.246319 C109.885544 8.595951 111.927834 8.908956 113.974907 9.183819 C139.272564 12.913416 165.091931 21.592163 187.849907 33.246319 C188.177329 33.404229 188.177329 33.404229 189.834282 34.20335 C195.378755 36.889721 200.610775 40.010843 205.849907 43.246319 C206.716157 43.770967 207.582407 44.295616 208.474907 44.836163 C219.413458 51.593262 231.220746 59.621486 239.849907 69.246319 C239.849907 69.906319 239.849907 70.566319 239.849907 71.246319 C240.839907 71.576319 241.829907 71.906319 242.849907 72.246319 C244.2163 73.885991 245.544849 75.55742 246.849907 77.246319 C247.214712 77.600811 247.214712 77.600811 249.060844 79.394756 C261.048857 91.25519 270.455977 106.173294 277.849907 121.246319 C278.272719 122.091944 278.695532 122.937569 279.131157 123.808819 C280.37074 126.287985 281.610324 128.767152 282.849907 131.246319 C283.347485 132.1796 283.845063 133.112881 284.357719 134.074444 C286.109068 137.586087 287.167565 141.227507 288.224907 144.996319 C288.435508 145.733663 288.646108 146.471006 288.863091 147.230694 C289.305906 148.785309 289.746132 150.340663 290.183891 151.896709 C290.833858 154.189699 291.503602 156.476046 292.178032 158.761944 C297.370609 176.552873 299.444806 193.991685 300.600395 212.448223 C300.849907 215.246319 300.849907 215.246319 301.368462 218.076153 C301.958434 221.960935 301.993261 225.722159 301.982719 229.644756 C301.983676 230.438547 301.984633 231.232337 301.985619 232.050182 C301.986296 233.722658 301.98447 235.395137 301.980278 237.067608 C301.974938 239.606406 301.980229 242.145026 301.986626 244.683819 C301.985965 246.316632 301.984683 247.949444 301.982719 249.582256 C301.984744 250.331474 301.986768 251.080691 301.988853 251.852612 C301.970183 256.122014 301.676304 260.24991 301.092461 264.479259 C300.798443 266.621243 300.616446 268.762446 300.455376 270.918194 C299.060326 288.173027 295.939651 304.704652 290.849907 321.246319 C290.581782 322.169288 290.313657 323.092256 290.037407 324.043194 C286.620323 335.789418 281.663837 346.683026 276.224907 357.621319 C276.080371 357.912728 276.080371 357.912728 275.34893 359.387432 C268.805246 372.425968 260.000991 383.959618 250.849907 395.246319 C250.201508 396.051983 249.55311 396.857647 248.885063 397.687725 C245.996643 401.18349 245.996643 401.18349 244.849907 402.246319 C244.189907 402.246319 243.529907 402.246319 242.849907 402.246319 C242.602407 402.865069 242.354907 403.483819 242.099907 404.121319 C240.612503 406.649905 239.413127 406.964709 236.849907 408.246319 C236.565024 408.843155 236.280141 409.439991 235.986626 410.054913 C228.480839 424.524831 204.327442 436.453093 190.603813 443.773663 C188.746673 444.766772 186.900357 445.780357 185.064751 446.812725 C179.128161 450.144229 173.203558 452.827146 166.849907 455.246319 C165.633981 455.734519 164.419214 456.225609 163.205376 456.718975 C162.881982 456.850137 162.881982 456.850137 161.245415 457.513897 C159.985099 458.025566 158.725292 458.538487 157.466118 459.052959 C149.03838 462.449552 140.604028 464.883592 131.724907 466.808819 C121.043146 469.14953 121.043146 469.14953 117.060844 470.332256 C113.907997 471.229782 110.838157 471.814778 107.599907 472.308819 C104.528009 472.780519 101.802416 473.262149 98.849907 474.246319 C97.368376 474.446521 95.881575 474.609244 94.392876 474.746319 C93.52727 474.828819 92.661665 474.911319 91.769829 474.996319 C90.86813 475.078819 89.96643 475.161319 89.037407 475.246319 C87.259885 475.411071 85.482535 475.577693 83.705376 475.746319 C82.918 475.818506 82.130625 475.890694 81.319389 475.965069 C79.519956 476.170007 77.727387 476.438118 75.942192 476.743145 C62.963342 478.855052 49.559203 478.432597 36.454643 478.431622 C33.185874 478.433803 29.917445 478.452011 26.648735 478.470928 C-7.624411 478.563333 -7.624411 478.563333 -23.150093 473.246319 C-24.140093 472.916319 -25.130093 472.586319 -26.150093 472.246319 C-27.236793 475.506418 -27.288376 477.907833 -27.308311 481.339626 C-27.313249 481.958806 -27.318187 482.577986 -27.323275 483.215928 C-27.338649 485.293357 -27.34701 487.370755 -27.355415 489.448223 C-27.364994 490.936334 -27.375004 492.424443 -27.385414 493.912548 C-27.412471 497.955613 -27.433476 501.998689 -27.453416 506.041794 C-27.475271 510.2659 -27.502662 514.48997 -27.529472 518.714046 C-27.579406 526.714394 -27.624342 534.714761 -27.667495 542.715148 C-27.716861 551.822686 -27.771781 560.930188 -27.827174 570.037691 C-27.941005 588.773866 -28.047842 607.510077 -28.150093 626.246319 C-29.884801 626.735286 -31.620718 627.219961 -33.357124 627.702862 C-34.32368 627.973233 -35.290235 628.243603 -36.286079 628.522167 C-40.218813 629.516539 -44.118752 629.995453 -48.150093 630.371319 C-49.608712 630.516925 -51.067062 630.665251 -52.525093 630.816631 C-53.151577 630.876089 -53.778062 630.935547 -54.423531 630.996807 C-56.150093 631.246319 -56.150093 631.246319 -59.150093 632.246319 C-60.503116 632.41319 -61.861553 632.538373 -63.221382 632.635235 C-64.043245 632.695196 -64.865108 632.755158 -65.711876 632.816936 C-66.604144 632.877422 -67.496412 632.937907 -68.415718 633.000225 C-68.881973 633.032925 -68.881973 633.032925 -71.241508 633.198406 C-74.293954 633.408738 -77.34685 633.6104 -80.400093 633.808819 C-81.443398 633.876686 -82.486703 633.944553 -83.561623 634.014477 C-118.123466 636.224123 -154.09528 637.160386 -188.264351 630.590069 C-190.14672 630.246934 -192.027256 629.969362 -193.923531 629.715069 C-194.219451 629.674786 -194.219451 629.674786 -195.716988 629.470928 C-197.241099 629.267537 -198.765874 629.069136 -200.290718 628.871319 C-203.150093 628.246319 -203.150093 628.246319 -210.150093 625.246319 C-210.150093 424.276319 -210.150093 223.306319 -210.150093 16.246319 C-195.507232 12.867197 -195.507232 12.867197 -189.907906 12.148663 C-189.299886 12.069456 -188.691866 11.990249 -188.065422 11.908642 C-186.136139 11.659897 -184.20579 11.421312 -182.275093 11.183819 C-180.920511 11.012255 -179.565938 10.840623 -178.211372 10.668926 C-168.860154 9.500571 -159.503628 8.555741 -150.105659 7.841778 C-149.239893 7.775472 -148.374126 7.709165 -147.482124 7.64085 C-147.109464 7.614303 -147.109464 7.614303 -145.223579 7.479961 C-143.150093 7.246319 -143.150093 7.246319 -141.259743 6.755032 C-139.248033 6.269936 -137.382803 6.026866 -135.322212 5.873272 C-134.583665 5.816513 -133.845118 5.759754 -133.08419 5.701275 C-132.29254 5.643952 -131.500889 5.586629 -130.685249 5.527569 C-129.856095 5.464767 -129.026941 5.401966 -128.172661 5.337261 C-125.519536 5.137041 -122.866086 4.941588 -120.212593 4.746319 C-118.461918 4.615128 -116.711267 4.48362 -114.96064 4.351788 C-111.552287 4.095375 -108.143743 3.841733 -104.735054 3.589825 C-101.04515 3.315936 -97.357437 3.019786 -93.669624 2.718975 C-62.502509 0.339505 -31.241166 0.032129 0 0 Z M-27.150093 140.246319 C-28.682159 143.310451 -28.287055 146.514595 -28.277077 149.876324 C-28.278637 150.672914 -28.280197 151.469505 -28.281804 152.290234 C-28.28581 154.974182 -28.282626 157.658074 -28.279488 160.342022 C-28.280842 162.26023 -28.282622 164.178438 -28.284798 166.096645 C-28.28937 171.317576 -28.287583 176.538486 -28.284419 181.759417 C-28.281894 187.2131 -28.284233 192.666781 -28.285805 198.120464 C-28.287743 207.867808 -28.284628 217.615145 -28.279545 227.362487 C-28.275077 236.205768 -28.275853 245.049035 -28.280464 253.892315 C-28.285812 264.15423 -28.28781 274.416139 -28.284852 284.678056 C-28.28329 290.112969 -28.283094 295.547872 -28.286388 300.982784 C-28.289269 306.091335 -28.287289 311.199861 -28.281494 316.308409 C-28.280167 318.187812 -28.280559 320.067217 -28.282757 321.946619 C-28.285471 324.503213 -28.282083 327.059726 -28.277077 329.616314 C-28.278192 329.992086 -28.278192 329.992086 -28.283836 331.893723 C-28.264243 337.018019 -28.264243 337.018019 -27.150093 339.246319 C-19.389941 342.055514 -11.599198 342.703918 -3.419624 342.679913 C-2.882274 342.682533 -2.882274 342.682533 -0.162956 342.695797 C2.094985 342.702173 4.352959 342.700938 6.610893 342.692364 C10.01215 342.683882 13.411707 342.712635 16.812798 342.744366 C28.718893 342.783178 39.729731 342.203392 51.165215 338.753613 C52.691238 338.294097 54.23154 337.882677 55.772758 337.477032 C61.655684 335.881252 66.921707 333.491241 72.287407 330.621319 C73.10999 330.185455 73.932573 329.74959 74.780083 329.300518 C81.53419 325.620932 87.150609 321.385686 92.849907 316.246319 C93.700688 315.591475 94.551469 314.936631 95.428032 314.261944 C104.811572 306.452417 111.339469 291.783808 114.849907 280.246319 C115.103852 279.416163 115.357798 278.586006 115.619438 277.730694 C121.748234 255.630799 121.530495 231.561679 116.849907 209.246319 C116.753227 208.777745 116.753227 208.777745 116.263969 206.406475 C113.502532 195.629695 107.20525 182.679197 99.849907 174.246319 C99.189907 174.246319 98.529907 174.246319 97.849907 174.246319 C97.623032 173.689444 97.396157 173.132569 97.162407 172.558819 C87.996913 156.410091 64.726501 146.452155 47.849907 141.246319 C26.925492 135.51117 -6.424368 132.198004 -27.150093 140.246319 Z " fill="#306CA8" transform="translate(1945.1500930786133,33.75368118286133)"/>
<path d="M0 0 C0.835695 0.000775 1.67139 0.001551 2.53241 0.00235 C4.907173 0.008788 7.281583 0.024951 9.65625 0.046875 C10.349373 0.051261 11.042496 0.055647 11.756622 0.060165 C16.09372 0.122797 20.212612 0.596238 24.5 1.25 C26.10496 1.370847 27.712085 1.46718 29.320312 1.53125 C30.178022 1.567747 31.035732 1.604243 31.919434 1.641846 C32.365852 1.659691 32.365852 1.659691 34.625 1.75 C36.515671 1.836235 38.406297 1.92347 40.296875 2.011719 C43.182137 2.144877 46.067308 2.273745 48.953125 2.394531 C56.136903 2.807502 63.159286 3.927554 70.25 5.125 C71.221147 5.286536 72.192295 5.448071 73.192871 5.614502 C74.134692 5.780388 75.076514 5.946274 76.046875 6.117188 C76.880576 6.26269 77.714277 6.408193 78.573242 6.558105 C81.183904 7.175274 83.643797 7.93644 86.182922 8.793243 C86.991825 9.065438 87.800729 9.337632 88.634144 9.618074 C89.249876 9.82661 89.865609 10.035145 90.5 10.25 C90.517131 68.582076 90.533031 126.914153 90.542343 185.246231 C90.542412 185.677542 90.542412 185.677542 90.542761 187.860235 C90.545754 206.604985 90.548524 225.349734 90.551065 244.094484 C90.552313 253.286215 90.553609 262.477947 90.554932 271.669678 C90.555062 272.584391 90.555193 273.499104 90.555328 274.441535 C90.559593 304.117654 90.567107 333.793771 90.576297 363.469888 C90.58572 393.952785 90.591883 424.43568 90.593915 454.918578 C90.594203 459.218964 90.594529 463.519349 90.594877 467.819735 C90.594911 468.242945 90.594911 468.242945 90.595082 470.384646 C90.596266 484.038119 90.60091 497.69159 90.606832 511.345062 C90.612705 525.054179 90.614972 538.763293 90.613501 552.472411 C90.612738 560.628378 90.614795 568.784333 90.620798 576.940298 C90.624528 582.378112 90.624677 587.815918 90.621832 593.253733 C90.620312 596.358752 90.620428 599.463748 90.624883 602.568764 C90.62963 605.902227 90.626766 609.235657 90.623048 612.569121 C90.624361 613.058738 90.624361 613.058738 90.631008 615.536492 C90.628761 616.415991 90.626514 617.295489 90.624198 618.20164 C90.624354 618.965165 90.62451 619.72869 90.624671 620.515352 C90.5 622.25 90.5 622.25 89.5 623.25 C87.682626 623.596624 85.854374 623.886507 84.023438 624.152344 C83.454437 624.235931 83.454437 624.235931 80.574951 624.658936 C79.341687 624.835492 78.108369 625.011673 76.875 625.1875 C75.621481 625.36811 74.367982 625.548856 73.114502 625.729736 C70.659191 626.083292 68.203489 626.433977 65.747559 626.783203 C63.210415 627.147886 60.676968 627.526359 58.144531 627.921875 C37.993897 630.927393 17.385624 630.438348 -2.941895 630.435303 C-5.82119 630.435221 -8.700327 630.442253 -11.57959 630.455811 C-41.526914 630.594525 -41.526914 630.594525 -55.718018 628.507721 C-58.500626 628.105284 -61.293294 627.792881 -64.085938 627.46875 C-91.913697 624.043151 -91.913697 624.043151 -95.5 622.25 C-95.534263 564.027377 -95.566064 505.804753 -95.584686 447.582123 C-95.584962 446.721049 -95.585239 445.859976 -95.585523 444.972809 C-95.591508 426.261461 -95.597049 407.550112 -95.602131 388.838764 C-95.604625 379.663342 -95.607219 370.487921 -95.609863 361.3125 C-95.610125 360.399413 -95.610386 359.486325 -95.610656 358.545569 C-95.619186 328.924939 -95.634213 299.304316 -95.652594 269.683691 C-95.671442 239.256485 -95.683767 208.829284 -95.68783 178.402073 C-95.688406 174.109035 -95.689058 169.815998 -95.689754 165.522961 C-95.689889 164.677991 -95.690024 163.83302 -95.690163 162.962445 C-95.692531 149.3352 -95.701818 135.707967 -95.713664 122.080727 C-95.725413 108.396235 -95.729942 94.711757 -95.727003 81.02726 C-95.725476 72.887042 -95.729585 64.746871 -95.741595 56.606662 C-95.749061 51.178071 -95.749352 45.749511 -95.743664 40.320918 C-95.740626 37.221967 -95.740846 34.123106 -95.749766 31.024164 C-95.759276 27.695505 -95.753525 24.366976 -95.746096 21.038309 C-95.75135 20.063308 -95.756604 19.088307 -95.762017 18.08376 C-95.757522 17.203448 -95.753028 16.323136 -95.748397 15.416147 C-95.748709 14.654026 -95.749021 13.891904 -95.749342 13.106688 C-95.5 11.25 -95.5 11.25 -93.5 9.25 C-65.236557 -0.878176 -29.604967 -0.046649 0 0 Z " fill="#306CA8" transform="translate(130.5,36.75)"/>
<path d="M0 0 C0.416961 0.000388 0.416961 0.000388 2.527039 0.00235 C4.894479 0.008785 7.261563 0.024938 9.628906 0.046875 C10.318852 0.051261 11.008797 0.055647 11.71965 0.060165 C15.4402 0.114156 18.998739 0.429142 22.672806 1.005463 C25.837092 1.443944 29.018367 1.562476 32.207031 1.714844 C33.688164 1.793382 35.169283 1.872165 36.650391 1.951172 C38.947214 2.070306 41.244094 2.187211 43.54126 2.299561 C52.029213 2.71981 60.13126 3.345759 68.4375 5.25 C71.635894 5.773901 74.853116 6.168227 78.066406 6.589844 C80.902462 7.145224 83.423053 7.864473 86.148193 8.79126 C86.953087 9.06374 87.757981 9.336221 88.587265 9.616959 C89.197843 9.825862 89.80842 10.034766 90.4375 10.25 C90.484187 22.471518 90.51934 34.693021 90.541124 46.91461 C90.551578 52.589101 90.565766 58.263532 90.588379 63.937988 C90.610051 69.410377 90.622057 74.882708 90.627254 80.355137 C90.63096 82.446808 90.638197 84.538476 90.64896 86.630123 C90.6634 89.5515 90.665481 92.472636 90.664551 95.394043 C90.671741 96.265822 90.678932 97.137601 90.68634 98.035797 C90.683591 98.829477 90.680842 99.623157 90.678009 100.440887 C90.679853 101.132232 90.681696 101.823577 90.683596 102.535872 C90.4375 104.25 90.4375 104.25 88.4375 106.25 C86.477783 106.628906 86.477783 106.628906 83.988281 106.8125 C83.017375 106.886057 82.04647 106.959614 81.046143 107.0354 C79.958416 107.106218 78.870688 107.177036 77.75 107.25 C76.606199 107.330486 75.462397 107.410972 74.283936 107.493896 C59.702758 108.479514 45.090052 108.995677 30.487549 109.552734 C29.488525 109.591925 28.489502 109.631115 27.460205 109.671494 C25.580193 109.74494 23.700068 109.815582 21.819824 109.882828 C17.28011 110.061375 12.829526 110.398311 8.32811 111.010208 C5.20448 111.406388 2.071521 111.594728 -1.070312 111.785156 C-1.414286 111.806645 -1.414286 111.806645 -3.154999 111.91539 C-4.60195 112.004882 -6.048984 112.093047 -7.496094 112.179932 C-9.6618 112.310945 -11.826963 112.449176 -13.992188 112.587891 C-21.871513 113.076045 -29.692015 113.336871 -37.58667 113.228027 C-41.046654 113.253575 -44.377899 113.599995 -47.792969 114.128906 C-49.5625 114.25 -49.5625 114.25 -52.5625 113.25 C-56.216684 112.85982 -59.453777 112.726436 -62.8125 114.3125 C-64.856927 116.575973 -66.228652 118.93083 -67.632812 121.628906 C-68.5625 123.25 -68.5625 123.25 -70.5625 125.25 C-72.869141 125.49292 -72.869141 125.49292 -75.71875 125.480469 C-76.740977 125.478535 -77.763203 125.476602 -78.816406 125.474609 C-79.887617 125.462363 -80.958828 125.450117 -82.0625 125.4375 C-83.133711 125.436855 -84.204922 125.436211 -85.308594 125.435547 C-93.281898 125.390301 -93.281898 125.390301 -95.5625 124.25 C-95.5625 86.63 -95.5625 49.01 -95.5625 10.25 C-93.2525 9.59 -90.9425 8.93 -88.5625 8.25 C-87.600859 7.908398 -86.639219 7.566797 -85.648438 7.214844 C-59.380996 -0.997888 -27.240289 -0.043005 0 0 Z " fill="#306CA8" transform="translate(817.5625,36.75)"/>
<path d="M0 0 C0.749197 -0.006878 1.498394 -0.013757 2.270294 -0.020844 C4.749255 -0.038228 7.228012 -0.044331 9.707031 -0.046875 C10.557682 -0.048547 11.408332 -0.050219 12.28476 -0.051941 C26.17697 -0.053559 39.979563 0.548849 53.832031 1.578125 C54.701212 1.641249 55.570392 1.704373 56.465912 1.769409 C65.290159 2.423189 73.876622 3.236067 82.519531 5.203125 C84.702838 5.57854 86.888436 5.889354 89.082031 6.203125 C94.290663 6.980717 99.402755 7.96029 104.519531 9.203125 C105.266491 11.877791 105.646063 14.261627 105.653244 17.036011 C105.655377 17.4103 105.655377 17.4103 105.666168 19.304428 C105.665715 20.115979 105.665262 20.927529 105.664795 21.763672 C105.668154 22.625899 105.671512 23.488125 105.674973 24.37648 C105.684467 27.22496 105.686425 30.073381 105.6875 32.921875 C105.690713 34.901978 105.694077 36.88208 105.697586 38.862183 C105.703573 43.01148 105.705426 47.160757 105.704834 51.310059 C105.704732 56.629884 105.718398 61.949577 105.735606 67.269371 C105.746716 71.357977 105.748754 75.446552 105.748224 79.535172 C105.749405 81.496795 105.753834 83.45842 105.761557 85.420029 C105.771339 88.160974 105.768486 90.901628 105.762451 93.642578 C105.768071 94.454129 105.77369 95.265679 105.77948 96.101822 C105.741399 102.897984 105.741399 102.897984 103.519531 106.203125 C85.517315 107.701503 67.521089 108.562077 49.471405 109.258179 C34.353818 109.851019 19.309686 110.784045 4.25 112.238037 C-2.998715 112.924908 -10.138618 113.343583 -17.423828 113.223907 C-22.046414 113.151173 -26.531037 113.503898 -31.113281 114.082031 C-33.743466 114.216579 -35.917522 113.774509 -38.480469 113.203125 C-42.582546 112.836411 -45.958004 112.897255 -49.480469 115.203125 C-50.859375 117.332031 -50.859375 117.332031 -52.042969 119.765625 C-53.234375 122.207031 -53.234375 122.207031 -54.480469 124.203125 C-59.094931 125.741279 -63.710272 125.387557 -68.542969 125.390625 C-69.561973 125.402871 -70.580977 125.415117 -71.630859 125.427734 C-72.603457 125.429668 -73.576055 125.431602 -74.578125 125.433594 C-75.470237 125.437703 -76.362349 125.441812 -77.281494 125.446045 C-79.480469 125.203125 -79.480469 125.203125 -81.480469 123.203125 C-81.732151 121.21347 -81.732151 121.21347 -81.734436 118.724121 C-81.740076 117.781877 -81.745715 116.839633 -81.751526 115.868835 C-81.747477 114.831885 -81.743429 113.794935 -81.739258 112.726562 C-81.742762 111.637083 -81.746267 110.547604 -81.749878 109.42511 C-81.757185 106.433357 -81.755454 103.44188 -81.74912 100.450142 C-81.744064 97.322714 -81.74875 94.195299 -81.751892 91.067871 C-81.755533 85.815408 -81.750729 80.563001 -81.741211 75.310547 C-81.730326 69.233637 -81.733852 63.156861 -81.744864 57.079954 C-81.753933 51.867175 -81.755224 46.654437 -81.749986 41.441652 C-81.746865 38.326212 -81.746463 35.210834 -81.753059 32.095398 C-81.759897 28.623441 -81.750426 25.151635 -81.739258 21.679688 C-81.743306 20.642737 -81.747355 19.605787 -81.751526 18.537415 C-81.745886 17.59517 -81.740247 16.652926 -81.734436 15.682129 C-81.733682 14.860644 -81.732928 14.039158 -81.732151 13.19278 C-81.480469 11.203125 -81.480469 11.203125 -79.480469 9.203125 C-64.714222 4.556744 -48.711804 3.147302 -33.355469 2.015625 C-32.21771 1.931755 -31.079951 1.847886 -29.907715 1.761475 C-24.385587 1.383911 -18.922049 1.116446 -13.387207 1.272217 C-11.480469 1.203125 -11.480469 1.203125 -9.701416 0.715088 C-6.484983 -0.02635 -3.283976 0.020485 0 0 Z " fill="#306CA8" transform="translate(2446.48046875,36.796875)"/>
<path d="M0 0 C3.85762 0.005702 7.715171 0.002294 11.572788 -0.003425 C33.774133 -0.03164 55.871325 0.19831 77.959717 2.695068 C80.254064 2.949856 82.550276 3.177638 84.847412 3.405762 C86.329362 3.568859 87.811142 3.733508 89.292725 3.899902 C89.968647 3.963615 90.644568 4.027328 91.340973 4.092972 C95.693254 4.622322 97.818674 5.711419 100.566162 9.130371 C96.595662 18.836038 91.630893 28.056067 86.668945 37.280762 C83.865396 42.515291 81.207867 47.814669 78.573242 53.135742 C75.932753 58.447809 73.165561 63.683921 70.355225 68.907715 C68.124077 73.061354 65.992183 77.253385 63.906006 81.481934 C62.200792 84.85259 60.415715 88.177569 58.628662 91.505371 C54.816423 98.61346 51.180169 105.800247 47.628662 113.041992 C40.906957 126.738123 40.906957 126.738123 37.441162 132.317871 C34.91868 136.38639 32.908011 140.596282 30.958496 144.956543 C28.676718 150.011105 26.093008 154.876877 23.457275 159.75415 C21.602527 163.187077 19.790566 166.629309 18.066162 170.130371 C16.047989 174.220716 13.91427 178.23928 11.753662 182.255371 C8.932548 187.503708 6.210291 192.790752 3.566162 198.130371 C-0.735791 206.809232 -5.221985 215.391971 -9.953369 223.845215 C-13.626401 230.41215 -16.860623 237.135509 -20.011719 243.967285 C-22.437464 249.184533 -25.08691 254.233684 -27.86792 259.27002 C-31.082417 265.141713 -34.121969 271.106963 -37.19751 277.052246 C-37.702178 278.024199 -38.206846 278.996152 -38.726807 279.997559 C-39.175642 280.864937 -39.624478 281.732314 -40.086914 282.625977 C-41.029259 284.37812 -42.043637 286.092538 -43.108643 287.772949 C-44.433838 290.130371 -44.433838 290.130371 -44.343994 292.981934 C-43.25091 296.763159 -41.697639 300.031143 -39.871338 303.505371 C-39.139431 304.933687 -38.407664 306.362074 -37.676025 307.790527 C-37.301875 308.513853 -36.927725 309.237178 -36.542236 309.982422 C-34.835372 313.29013 -33.163087 316.614809 -31.496338 319.942871 C-31.168755 320.595056 -30.841172 321.247241 -30.503662 321.919189 C-27.916522 327.096606 -25.450261 332.32629 -22.996338 337.567871 C-18.365969 347.43747 -13.604078 357.387446 -7.863525 366.669434 C-6.429581 369.137699 -5.327385 371.599499 -4.233154 374.229492 C-0.805775 382.380248 2.858707 390.637134 7.566162 398.130371 C10.664956 403.063316 13.032691 408.259017 15.4646 413.540527 C17.681886 418.32785 20.039765 422.999366 22.566162 427.630371 C25.404701 432.841854 28.016247 438.117611 30.503662 443.505371 C33.186504 449.314675 36.031472 454.996928 39.066162 460.630371 C42.475105 466.958558 45.604443 473.370896 48.616943 479.895996 C50.786229 484.561682 53.105674 489.112085 55.566162 493.630371 C58.404275 498.842102 61.016233 504.117579 63.503662 509.505371 C66.186504 515.314675 69.031472 520.996928 72.066162 526.630371 C75.475105 532.958558 78.604443 539.370896 81.616943 545.895996 C83.786229 550.561682 86.105674 555.112085 88.566162 559.630371 C91.404275 564.842102 94.016233 570.117579 96.503662 575.505371 C99.18653 581.314731 102.03223 586.996483 105.066162 592.630371 C108.231062 598.52316 111.255492 604.46448 114.128662 610.505371 C114.47542 611.225312 114.822178 611.945254 115.179443 612.687012 C115.493975 613.35668 115.808506 614.026348 116.132568 614.716309 C116.410442 615.304604 116.688315 615.8929 116.974609 616.499023 C117.566162 618.130371 117.566162 618.130371 117.566162 621.130371 C112.079214 622.651651 106.728216 623.580615 101.066162 624.130371 C99.476205 624.294645 97.886363 624.460032 96.296631 624.626465 C95.504341 624.708804 94.712051 624.791143 93.895752 624.875977 C89.808316 625.32233 85.731985 625.863941 81.659912 626.433105 C68.243474 628.203123 54.76099 628.281081 41.253662 628.263184 C39.427734 628.26386 37.601806 628.264832 35.775879 628.266083 C31.973868 628.267546 28.171881 628.265451 24.369873 628.260742 C19.53912 628.255046 14.708422 628.258332 9.87767 628.264315 C6.11462 628.267958 2.351582 628.266764 -1.411469 628.264187 C-3.190949 628.263528 -4.97043 628.264309 -6.749908 628.266666 C-19.697368 628.280064 -32.526703 627.917256 -45.394287 626.371582 C-47.562728 626.115128 -49.73246 625.904075 -51.906494 625.700684 C-59.790796 624.946437 -67.631621 624.072019 -75.433838 622.692871 C-76.097786 622.582817 -76.761733 622.472764 -77.445801 622.359375 C-81.027843 621.686246 -83.306617 621.158072 -85.433838 618.130371 C-86.627262 615.955624 -87.738734 613.801002 -88.808838 611.567871 C-89.432516 610.293122 -90.056214 609.018382 -90.679932 607.743652 C-90.981411 607.121841 -91.282891 606.500029 -91.593506 605.859375 C-92.667893 603.648796 -93.76768 601.451463 -94.871338 599.255371 C-95.261924 598.47291 -95.65251 597.690449 -96.054932 596.884277 C-97.147347 594.702542 -98.244449 592.523355 -99.343994 590.345215 C-102.753134 583.578467 -106.075018 576.802723 -109.168213 569.884277 C-111.471584 564.872312 -113.983628 559.963819 -116.470459 555.041016 C-118.175844 551.658769 -119.86629 548.269054 -121.558838 544.880371 C-122.238461 543.520964 -122.918147 542.161588 -123.5979 540.802246 C-132.234619 523.528809 -132.234619 523.528809 -133.223633 521.550537 C-133.907129 520.183708 -134.590887 518.817009 -135.274902 517.450439 C-137.039771 513.923597 -138.79996 510.394558 -140.551025 506.86084 C-146.869659 494.130413 -146.869659 494.130413 -150.426025 488.024902 C-151.433838 486.130371 -151.433838 486.130371 -152.340088 483.845215 C-153.720952 480.417713 -155.382529 477.171098 -157.058838 473.880371 C-159.953918 468.154501 -162.736589 462.389339 -165.433838 456.567871 C-168.218526 450.574576 -171.201631 444.736549 -174.363525 438.934814 C-177.073185 433.916805 -179.52324 428.797779 -181.933838 423.630371 C-184.619354 417.874302 -187.39166 412.206435 -190.433838 406.630371 C-193.892316 400.284373 -197.007168 393.807042 -200.071777 387.262939 C-204.205711 378.444774 -208.58525 369.755794 -212.984619 361.067871 C-215.499576 356.078631 -217.938678 351.069712 -220.293213 346.003174 C-223.183368 339.784478 -226.158265 333.655848 -229.433838 327.630371 C-232.375242 322.173418 -235.252883 316.689859 -237.996338 311.130371 C-238.17584 310.783291 -238.17584 310.783291 -239.084229 309.026855 C-241.422764 304.195749 -241.803799 301.353348 -240.433838 296.130371 C-239.304932 293.419434 -239.304932 293.419434 -237.871338 290.755371 C-237.323553 289.712259 -236.778115 288.667912 -236.234619 287.622559 C-235.942808 287.064072 -235.650996 286.505586 -235.350342 285.930176 C-233.665707 282.621936 -232.12231 279.247086 -230.558838 275.880371 C-227.893691 270.168886 -225.14894 264.506861 -222.308838 258.880371 C-219.483578 253.277784 -216.790959 247.63339 -214.187744 241.92334 C-211.40647 235.865037 -208.492357 229.868599 -205.609131 223.858398 C-202.792546 217.983096 -200.003738 212.096146 -197.246338 206.192871 C-194.421462 200.147637 -191.459177 194.183863 -188.439697 188.233887 C-185.493611 182.370654 -182.858477 176.385981 -180.233887 170.373535 C-178.230152 165.817823 -176.114709 161.417447 -173.539307 157.149902 C-172.314337 154.91206 -171.343729 152.601516 -170.355469 150.251709 C-168.403156 145.758027 -166.24175 141.358989 -164.121338 136.942871 C-163.632219 135.92145 -163.143101 134.900029 -162.63916 133.847656 C-159.677034 127.675618 -156.67569 121.528408 -153.554932 115.435059 C-152.433838 113.130371 -152.433838 113.130371 -151.437744 110.638184 C-150.056801 107.188511 -148.346145 103.934872 -146.652588 100.630371 C-145.433838 98.130371 -145.433838 98.130371 -144.500244 95.763184 C-143.141799 92.409366 -141.513034 89.227825 -139.871338 86.005371 C-136.375711 79.085209 -133.032304 72.101888 -129.733887 65.085938 C-127.148058 59.599826 -124.490146 54.156671 -121.728516 48.756836 C-120.377243 46.097893 -119.114089 43.424868 -117.957275 40.677246 C-116.185023 36.474377 -114.114308 32.439762 -112.039307 28.380371 C-110.265359 24.879364 -108.625536 21.352578 -107.107422 17.73291 C-103.711023 9.652459 -103.711023 9.652459 -99.433838 7.130371 C-96.71799 6.362572 -93.975457 5.962465 -91.183838 5.567871 C-90.36915 5.444927 -89.554463 5.321982 -88.715088 5.195312 C-80.599855 4.033607 -72.442965 3.367416 -64.268799 2.776611 C-63.292012 2.705149 -62.315225 2.633687 -61.308838 2.560059 C-60.874424 2.53033 -60.874424 2.53033 -58.676025 2.379883 C-56.433838 2.130371 -56.433838 2.130371 -53.433838 1.130371 C-50.279575 0.791998 -47.106693 0.70668 -43.937744 0.575684 C-42.936027 0.533638 -41.934309 0.491592 -40.902237 0.448273 C-27.273054 -0.060019 -13.636669 -0.020322 0 0 Z " fill="#306CA8" transform="translate(504.433837890625,38.86962890625)"/>
<path d="M0 0 C2.523513 2.523513 2.240086 4.079459 2.262017 7.521563 C2.256763 8.300834 2.251509 9.080105 2.246096 9.88299 C2.248403 10.710912 2.250711 11.538835 2.253089 12.391846 C2.258428 15.196256 2.249372 18.000441 2.240509 20.80484 C2.24138 22.823594 2.24313 24.842348 2.245687 26.861101 C2.250181 32.43198 2.24213 38.002783 2.232131 43.573653 C2.223435 48.957005 2.22605 54.340356 2.227495 59.723712 C2.230126 70.739907 2.223428 81.756078 2.21146 92.772266 C2.199637 103.683764 2.19193 114.595252 2.189754 125.506756 C2.189617 126.184542 2.18948 126.862328 2.189338 127.560653 C2.188661 131.002617 2.188058 134.444581 2.187484 137.886545 C2.18328 162.282443 2.169798 186.678328 2.150879 211.074219 C2.132518 234.77832 2.118347 258.482417 2.109863 282.186523 C2.1096 282.916854 2.109337 283.647184 2.109066 284.399646 C2.106429 291.733749 2.103878 299.067852 2.101388 306.401955 C2.096316 321.343115 2.090673 336.284274 2.084686 351.225433 C2.084549 351.568938 2.084549 351.568938 2.083854 353.30728 C2.065445 399.204859 2.033712 445.10243 2 491 C-0.915527 492.518086 -3.259206 493.349705 -6.527344 493.78125 C-7.403262 493.901133 -8.27918 494.021016 -9.181641 494.144531 C-10.091074 494.261836 -11.000508 494.379141 -11.9375 494.5 C-13.717561 494.738741 -15.497508 494.978336 -17.277344 495.21875 C-18.209336 495.342017 -19.141328 495.465283 -20.101562 495.592285 C-23.055769 496.007845 -25.99126 496.500072 -28.933594 496.992188 C-37.948925 498.388676 -47.029433 498.990989 -56.125 499.625 C-57.054736 499.69037 -57.984473 499.755739 -58.942383 499.82309 C-91.496822 502.077959 -124.681619 502.008008 -156.914062 496.348145 C-160.325795 495.778724 -163.755586 495.364496 -167.1875 494.9375 C-181.960964 493.039036 -181.960964 493.039036 -184 491 C-184.105576 488.733438 -184.145755 486.496971 -184.144252 484.229539 C-184.147693 483.509737 -184.151135 482.789935 -184.15468 482.048321 C-184.165111 479.605739 -184.168346 477.163198 -184.171677 474.720596 C-184.177668 472.963992 -184.184093 471.20739 -184.190916 469.450788 C-184.208458 464.599845 -184.219694 459.748903 -184.229927 454.897939 C-184.242002 449.675636 -184.259777 444.453352 -184.276794 439.231064 C-184.309174 428.990866 -184.335984 418.750659 -184.360597 408.510439 C-184.380609 400.191444 -184.402209 391.872454 -184.424936 383.553465 C-184.431451 381.162048 -184.437958 378.77063 -184.444462 376.379213 C-184.446079 375.784763 -184.447697 375.190312 -184.449363 374.577848 C-184.494812 357.8489 -184.538049 341.119949 -184.576907 324.390985 C-184.578374 323.759803 -184.579842 323.12862 -184.581353 322.478312 C-184.588787 319.278949 -184.596204 316.079585 -184.603618 312.880222 C-184.605091 312.244774 -184.606564 311.609327 -184.608082 310.954623 C-184.611061 309.669593 -184.614038 308.384562 -184.617014 307.099532 C-184.663387 287.100591 -184.717891 267.101686 -184.778564 247.102783 C-184.846665 224.65372 -184.908025 202.204652 -184.959814 179.755546 C-184.965357 177.363814 -184.970925 174.972082 -184.976511 172.580351 C-184.977882 171.99141 -184.979254 171.402469 -184.980667 170.795682 C-185.002938 161.299728 -185.031656 151.803804 -185.062583 142.307874 C-185.093462 132.771646 -185.116716 123.235423 -185.132686 113.699158 C-185.141545 108.528367 -185.153704 103.357637 -185.174494 98.186878 C-185.193417 93.460204 -185.203218 88.733604 -185.205517 84.006893 C-185.207997 82.290201 -185.213918 80.57351 -185.22349 78.856843 C-185.235936 76.536564 -185.236228 74.216604 -185.233272 71.896302 C-185.239844 71.218391 -185.246417 70.54048 -185.253188 69.842026 C-185.228296 65.228296 -185.228296 65.228296 -183 63 C-180.799017 62.835435 -178.726009 62.792594 -176.527344 62.839844 C-175.86465 62.845499 -175.201956 62.851153 -174.51918 62.856979 C-173.079885 62.869599 -171.640622 62.886379 -170.201416 62.906799 C-166.351863 62.959003 -162.502194 62.973312 -158.652344 62.988281 C-157.857989 62.991806 -157.063635 62.995331 -156.245209 62.998962 C-148.536044 63.022475 -140.833969 62.899284 -133.12796 62.683624 C-131.725278 62.644981 -130.322501 62.609645 -128.919647 62.57785 C-121.900129 62.415809 -115.213558 62.012027 -108.338379 60.450195 C-104.152976 59.644403 -99.937975 59.655449 -95.6875 59.5625 C-88.168852 59.317472 -80.866329 58.679712 -73.4375 57.5 C-65.487387 56.242245 -57.675529 55.632029 -49.635254 55.34375 C-43.825562 55.123561 -38.086198 54.684837 -32.3125 54 C-31.599326 53.916775 -30.886152 53.83355 -30.151367 53.747803 C-25.27139 53.135695 -25.27139 53.135695 -23 52 C-22.097613 49.292838 -21.881487 47.762232 -21.902344 44.988281 C-21.905566 44.230957 -21.908789 43.473633 -21.912109 42.693359 C-21.920488 41.907676 -21.928867 41.121992 -21.9375 40.3125 C-21.939756 39.913857 -21.939756 39.913857 -21.951172 37.896484 C-21.962942 35.930913 -21.979384 33.965495 -22 32 C-24.706808 31.241219 -27.114727 30.873976 -29.923096 30.870605 C-30.681009 30.867453 -31.438922 30.864301 -32.219803 30.861053 C-33.030276 30.863078 -33.840749 30.865102 -34.675781 30.867188 C-35.519165 30.866231 -36.36255 30.865274 -37.231491 30.864288 C-39.014273 30.863609 -40.797057 30.865448 -42.579834 30.869629 C-45.292212 30.87496 -48.004424 30.869687 -50.716797 30.863281 C-52.453125 30.863942 -54.189454 30.865225 -55.925781 30.867188 C-56.730181 30.865163 -57.534582 30.863139 -58.363358 30.861053 C-63.017526 30.880172 -67.406113 31.255528 -72 32 C-74.399332 32.201108 -76.784539 32.370626 -79.1875 32.5 C-79.915095 32.541331 -80.64269 32.582661 -81.392334 32.625244 C-87.215472 32.926077 -93.03834 33.08369 -98.867188 33.214844 C-99.26255 33.224154 -99.26255 33.224154 -101.263321 33.271271 C-105.281806 33.365545 -109.300093 33.450472 -113.319092 33.519531 C-119.976523 33.655966 -126.202594 33.813615 -132.666748 35.534424 C-138.362006 36.670853 -144.33216 36.490932 -150.125 36.625 C-151.450543 36.663318 -152.776064 36.702377 -154.101562 36.742188 C-160.834602 36.934785 -167.569035 37.0452 -174.304688 37.085938 C-174.933599 37.092917 -175.56251 37.099896 -176.21048 37.107086 C-179.110775 37.113225 -181.217553 36.927482 -184 36 C-184 25.44 -184 14.88 -184 4 C-178.804596 2.701149 -173.896729 2.776423 -168.5625 2.75 C-167.525449 2.729375 -166.488398 2.70875 -165.419922 2.6875 C-164.416387 2.682344 -163.412852 2.677188 -162.378906 2.671875 C-161.922941 2.667202 -161.922941 2.667202 -159.615479 2.643555 C-157 3 -157 3 -154.600586 4.44751 C-151.456552 6.324426 -148.583117 6.783668 -145.011719 7.167969 C-144.320112 7.247342 -143.628504 7.326715 -142.915939 7.408493 C-133.57158 8.37737 -124.1968 8.348931 -114.8125 8.3125 C-114.321428 8.311589 -114.321428 8.311589 -111.836304 8.306976 C-92.42686 8.246935 -73.297402 6.970012 -54 5 C-51.905622 4.788833 -49.81122 4.577909 -47.716797 4.367188 C-38.80283 3.468085 -29.889176 2.566958 -20.979492 1.626221 C-19.954869 1.518705 -18.930245 1.411189 -17.874573 1.300415 C-15.947051 1.097727 -14.019748 0.892933 -12.092712 0.685669 C-2.944666 -0.274181 -2.944666 -0.274181 0 0 Z " fill="#306CA8" transform="translate(906,168)"/>
<path d="M0 0 C1.232076 3.696228 1.137524 7.104969 1.125841 10.953599 C1.127295 11.777011 1.128748 12.600423 1.130246 13.448787 C1.13392 16.231791 1.130412 19.014741 1.126984 21.797745 C1.128135 23.803562 1.129722 25.809379 1.131711 27.815195 C1.135904 33.345726 1.133814 38.87624 1.130725 44.406772 C1.128216 49.752673 1.131356 55.098573 1.133872 60.444473 C1.139145 72.057111 1.138679 83.669743 1.135793 95.282381 C1.13328 105.443991 1.132619 115.605599 1.133816 125.76721 C1.133854 126.103844 1.133854 126.103844 1.134047 127.807416 C1.134359 130.540216 1.134677 133.273016 1.135007 136.005816 C1.138068 161.655941 1.135289 187.306063 1.12991 212.956188 C1.125164 235.761565 1.125589 258.566937 1.130371 281.372314 C1.135722 306.97615 1.137851 332.579982 1.134759 358.183818 C1.134438 360.911414 1.134125 363.63901 1.133816 366.366606 C1.133737 367.038243 1.133658 367.709879 1.133576 368.401869 C1.132437 378.559586 1.133772 388.7173 1.136295 398.875017 C1.139149 410.420032 1.138452 421.965041 1.133015 433.510055 C1.13033 439.405879 1.129372 445.30169 1.132664 451.197514 C1.135627 456.586555 1.134034 461.975574 1.128686 467.364613 C1.127562 469.32215 1.128153 471.279689 1.130562 473.237225 C1.133569 475.882258 1.130518 478.527214 1.125841 481.172242 C1.128182 481.945842 1.130523 482.719443 1.132936 483.516486 C1.11415 488.771699 1.11415 488.771699 0 491 C-8.304549 493.603307 -17.09097 494.47666 -25.722168 495.265625 C-29.799433 495.641361 -33.839346 496.109704 -37.888809 496.722061 C-45.931129 497.936116 -53.945599 498.641827 -62.0625 499.125 C-62.749087 499.166693 -63.435674 499.208386 -64.143066 499.251343 C-95.349415 501.109034 -127.023863 500.671157 -157.88623 495.348145 C-161.287644 494.787921 -164.705028 494.366566 -168.125 493.9375 C-184.128343 491.871657 -184.128343 491.871657 -186 490 C-186.100491 487.733257 -186.135485 485.496904 -186.128634 483.229539 C-186.129511 482.869638 -186.129511 482.869638 -186.133947 481.048321 C-186.138646 478.605728 -186.136131 476.163193 -186.133713 473.720596 C-186.135579 471.963993 -186.137879 470.20739 -186.140578 468.450788 C-186.146728 463.599834 -186.146559 458.748896 -186.145384 453.897939 C-186.145181 448.675644 -186.150691 443.453356 -186.155441 438.231064 C-186.163766 427.990855 -186.16651 417.750651 -186.167054 407.510439 C-186.167513 399.191447 -186.169567 390.872457 -186.172754 382.553465 C-186.173652 380.162048 -186.174542 377.77063 -186.175429 375.379213 C-186.17565 374.784763 -186.175871 374.190312 -186.176099 373.577848 C-186.182256 356.848894 -186.186199 340.11994 -186.185756 323.390985 C-186.18574 322.759803 -186.185725 322.12862 -186.185709 321.478312 C-186.185625 318.278949 -186.185526 315.079585 -186.185424 311.880222 C-186.185404 311.244774 -186.185384 310.609327 -186.185363 309.954623 C-186.185323 308.669593 -186.185281 307.384562 -186.185238 306.099532 C-186.184625 286.100608 -186.192134 266.101702 -186.205811 246.102783 C-186.221156 223.653702 -186.229778 201.204632 -186.228847 178.755546 C-186.228773 176.363814 -186.228724 173.972082 -186.228693 171.580351 C-186.228681 170.99141 -186.22867 170.402469 -186.228658 169.795682 C-186.228627 160.29974 -186.235025 150.803812 -186.243625 141.307874 C-186.252084 131.771629 -186.252934 122.235406 -186.246516 112.699158 C-186.243236 107.528379 -186.243247 102.357653 -186.251869 97.186878 C-186.25967 92.460184 -186.258369 87.733585 -186.249585 83.006893 C-186.248036 81.290209 -186.249919 79.573519 -186.255445 77.856843 C-186.262424 75.536543 -186.257277 73.216589 -186.248889 70.896302 C-186.253857 70.218391 -186.258825 69.54048 -186.263944 68.842026 C-186.228296 64.228296 -186.228296 64.228296 -184 62 C-181.776033 61.835564 -179.678683 61.792576 -177.457031 61.839844 C-176.78905 61.845499 -176.121069 61.851153 -175.432846 61.856979 C-173.984609 61.869592 -172.536404 61.886369 -171.088257 61.906799 C-167.226944 61.95889 -163.365514 61.973239 -159.503906 61.988281 C-158.713217 61.991806 -157.922529 61.995331 -157.10788 61.998962 C-149.802761 62.021475 -142.505847 61.904839 -135.204193 61.683624 C-133.925006 61.64525 -132.645725 61.609874 -131.366364 61.57785 C-124.214905 61.39537 -117.221185 60.84444 -110.154922 59.752106 C-104.184337 58.838131 -98.210303 58.403786 -92.1875 58 C-84.746243 57.468368 -77.338246 56.883102 -69.9375 55.9375 C-64.479769 55.241273 -59.057543 54.777807 -53.5625 54.5 C-47.391727 54.187675 -41.266784 53.677544 -35.125 53 C-34.357444 52.916855 -33.589888 52.833711 -32.799072 52.748047 C-29.670075 52.389762 -27.007919 52.00264 -24 51 C-22.435341 36.939211 -22.435341 36.939211 -25 31 C-28.124759 29.437621 -31.452315 29.837395 -34.882812 29.832031 C-35.281455 29.829982 -35.281455 29.829982 -37.298828 29.819611 C-39.907595 29.809982 -42.516218 29.810096 -45.125 29.8125 C-46.017011 29.812107 -46.909022 29.811714 -47.828064 29.81131 C-58.895314 29.817158 -69.796267 30.06713 -80.809326 31.218018 C-91.933884 32.324354 -103.104523 32.410249 -114.275879 32.570068 C-120.953532 32.684819 -127.19185 32.798226 -133.675537 34.532227 C-139.343902 35.672925 -145.294932 35.495139 -151.0625 35.625 C-152.45281 35.661477 -153.843109 35.698343 -155.233398 35.735596 C-158.570153 35.821903 -161.907022 35.895857 -165.244202 35.963562 C-166.813098 35.996121 -168.381901 36.033158 -169.950684 36.070801 C-172.217199 36.122859 -174.483068 36.160568 -176.75 36.1875 C-177.367542 36.200552 -177.985083 36.213604 -178.621338 36.227051 C-180.755031 36.231403 -182.632359 36.131863 -184.650635 35.407959 C-186.499863 33.478431 -186.340865 31.784773 -186.33989 29.199432 C-186.324406 28.553542 -186.308922 27.907651 -186.292969 27.242188 C-186.288724 26.579136 -186.284479 25.916085 -186.280106 25.232941 C-186.2633 23.113216 -186.225647 20.994438 -186.1875 18.875 C-186.172455 17.438816 -186.158767 16.002617 -186.146484 14.566406 C-186.11339 11.043905 -186.061597 7.522113 -186 4 C-181.770973 1.660902 -178.066771 1.442297 -173.3125 1.1875 C-172.503936 1.143269 -171.695371 1.099038 -170.862305 1.053467 C-164.995479 0.829231 -160.335235 1.428948 -155 4 C-143.384662 8.545132 -129.579492 7.238933 -117.3125 7.25 C-116.822918 7.250836 -116.822918 7.250836 -114.345337 7.255066 C-99.932119 7.256526 -85.618853 6.754603 -71.25 5.625 C-70.847314 5.593438 -70.847314 5.593438 -68.809479 5.433716 C-59.234389 4.665376 -49.700673 3.648087 -40.165039 2.495117 C-34.033815 1.757734 -27.89271 1.121519 -21.747559 0.512451 C-20.394046 0.376968 -19.040859 0.238194 -17.687988 0.096436 C-15.68327 -0.113449 -13.677792 -0.313659 -11.671875 -0.511719 C-11.072924 -0.576227 -10.473973 -0.640736 -9.856873 -0.707199 C-6.361881 -1.039037 -3.402368 -0.866543 0 0 Z " fill="#306CA8" transform="translate(2551,169)"/>
</svg>
